<svg width="26" height="25" viewBox="0 0 26 25" fill="none" xmlns="http://www.w3.org/2000/svg">
<path d="M1.63625 23.7878C0.381014 22.5326 0.381015 20.4974 1.63625 19.2422L19.937 0.941429C21.1923 -0.31381 23.2274 -0.31381 24.4826 0.941429C25.7379 2.19667 25.7379 4.23181 24.4826 5.48705L6.18187 23.7878C4.92663 25.0431 2.89149 25.0431 1.63625 23.7878ZM1.65315 5.48705C0.397913 4.23181 0.397914 2.19667 1.65315 0.941429C2.90839 -0.313809 4.94353 -0.313808 6.19877 0.94143L24.4995 19.2422C25.7548 20.4974 25.7548 22.5326 24.4995 23.7878C23.2443 25.0431 21.2092 25.0431 19.9539 23.7878L1.65315 5.48705Z" fill="white"/>
</svg>
