<svg width="20" height="20" viewBox="0 0 20 20" fill="none" xmlns="http://www.w3.org/2000/svg">
<path d="M9.40011 16.1612L16.796 8.76529C15.7894 8.34639 14.5972 7.65819 13.4697 6.53067C12.342 5.40297 11.6537 4.21058 11.2348 3.2039L3.83882 10.5999C3.26169 11.1771 2.97307 11.4657 2.7249 11.7838C2.43213 12.1592 2.18114 12.5653 1.97634 12.995C1.80273 13.3593 1.67368 13.7465 1.41556 14.5208L0.0544494 18.6042C-0.0725708 18.9852 0.0265994 19.4053 0.31063 19.6894C0.59466 19.9734 1.01478 20.0726 1.39584 19.9456L5.47919 18.5844C6.25352 18.3263 6.64071 18.1973 7.00499 18.0237C7.4347 17.8189 7.84083 17.5679 8.21621 17.2751C8.53431 17.0269 8.82301 16.7383 9.40011 16.1612ZM18.8482 6.71305C20.3839 5.17734 20.3839 2.68748 18.8482 1.15178C17.3125 -0.383927 14.8226 -0.383927 13.2869 1.15178L12.3999 2.03882C12.4121 2.0755 12.4246 2.11268 12.4377 2.15035C12.7628 3.0875 13.3763 4.316 14.5303 5.47001C15.6843 6.62402 16.9128 7.23748 17.85 7.56261C17.8875 7.57562 17.9245 7.58816 17.961 7.60025L18.8482 6.71305Z" fill="white"/>
</svg>
