<svg width="41" height="40" viewBox="0 0 41 40" fill="none" xmlns="http://www.w3.org/2000/svg">
<path d="M38.1945 0H2.95138C2.37375 0 1.81979 0.229461 1.41134 0.637905C1.0029 1.04635 0.773438 1.60032 0.773438 2.17794V37.421C0.773438 37.707 0.829772 37.9902 0.939224 38.2545C1.04868 38.5187 1.2091 38.7588 1.41134 38.9611C1.61358 39.1633 1.85368 39.3237 2.11792 39.4332C2.38216 39.5426 2.66537 39.599 2.95138 39.599H21.9193V24.2544H16.7714V18.3145H21.9193V13.8596C21.8127 12.8137 21.9361 11.7572 22.2811 10.7641C22.626 9.77094 23.184 8.86531 23.916 8.11068C24.648 7.35606 25.5362 6.77071 26.5184 6.39571C27.5005 6.0207 28.5528 5.86511 29.6015 5.93985C31.1425 5.93036 32.6828 6.00969 34.2148 6.17744V11.5233H31.0667C28.5719 11.5233 28.0967 12.7113 28.0967 14.4338V18.2551H34.0366L33.2644 24.195H28.0967V39.599H38.1945C38.4805 39.599 38.7637 39.5426 39.0279 39.4332C39.2922 39.3237 39.5323 39.1633 39.7345 38.9611C39.9367 38.7588 40.0972 38.5187 40.2066 38.2545C40.3161 37.9902 40.3724 37.707 40.3724 37.421V2.17794C40.3724 1.89193 40.3161 1.60872 40.2066 1.34448C40.0972 1.08024 39.9367 0.840146 39.7345 0.637905C39.5323 0.435664 39.2922 0.275238 39.0279 0.165786C38.7637 0.0563344 38.4805 0 38.1945 0Z" fill="#99A1AF"/>
</svg>
