<svg width="33" height="33" viewBox="0 0 33 33" fill="none" xmlns="http://www.w3.org/2000/svg">
<path d="M16.1429 32.3097C14.3677 32.3097 12.9286 30.8706 12.9286 29.0954V3.21424C12.9286 1.43906 14.3677 0 16.1429 0V0C17.9181 0 19.3571 1.43906 19.3571 3.21424V29.0954C19.3571 30.8706 17.9181 32.3097 16.1429 32.3097V32.3097ZM3.21424 19.3571C1.43906 19.3571 0 17.9181 0 16.1429V16.1429C0 14.3677 1.43906 12.9286 3.21424 12.9286H29.0954C30.8706 12.9286 32.3097 14.3677 32.3097 16.1429V16.1429C32.3097 17.9181 30.8706 19.3571 29.0954 19.3571H3.21424Z" fill="white"/>
</svg>
