<svg width="40" height="40" viewBox="0 0 40 40" fill="none" xmlns="http://www.w3.org/2000/svg">
<path d="M13.1395 19.7076C13.1395 16.0797 16.0797 13.1379 19.7076 13.1379C23.3356 13.1379 26.2774 16.0797 26.2774 19.7076C26.2774 23.3356 23.3356 26.2774 19.7076 26.2774C16.0797 26.2774 13.1395 23.3356 13.1395 19.7076ZM9.58797 19.7076C9.58797 25.2968 14.1185 29.8273 19.7076 29.8273C25.2968 29.8273 29.8273 25.2968 29.8273 19.7076C29.8273 14.1185 25.2968 9.58797 19.7076 9.58797C14.1185 9.58797 9.58797 14.1185 9.58797 19.7076ZM27.8629 9.18681C27.8629 10.4922 28.9215 11.5524 30.2284 11.5524C31.5338 11.5524 32.594 10.4922 32.594 9.18681C32.594 7.88146 31.5354 6.82285 30.2284 6.82285C28.9215 6.82285 27.8629 7.88146 27.8629 9.18681ZM11.745 35.7491C9.82357 35.6616 8.77929 35.3416 8.08522 35.071C7.16511 34.7128 6.50925 34.2862 5.81837 33.5969C5.12908 32.9076 4.70086 32.2517 4.34427 31.3316C4.07365 30.6376 3.75368 29.5933 3.66613 27.6719C3.57062 25.5944 3.55151 24.9704 3.55151 19.7076C3.55151 14.4448 3.57221 13.8224 3.66613 11.7434C3.75368 9.82198 4.07524 8.77929 4.34427 8.08363C4.70245 7.16352 5.12908 6.50766 5.81837 5.81677C6.50766 5.12749 7.16352 4.69927 8.08522 4.34268C8.77929 4.07206 9.82357 3.75209 11.745 3.66454C13.8224 3.56902 14.4464 3.54992 19.7076 3.54992C24.9704 3.54992 25.5929 3.57061 27.6719 3.66454C29.5933 3.75209 30.636 4.07365 31.3316 4.34268C32.2517 4.69927 32.9076 5.12749 33.5985 5.81677C34.2878 6.50606 34.7144 7.16352 35.0726 8.08363C35.3432 8.77769 35.6632 9.82198 35.7507 11.7434C35.8462 13.8224 35.8653 14.4448 35.8653 19.7076C35.8653 24.9688 35.8462 25.5929 35.7507 27.6719C35.6632 29.5933 35.3416 30.6376 35.0726 31.3316C34.7144 32.2517 34.2878 32.9076 33.5985 33.5969C32.9092 34.2862 32.2517 34.7128 31.3316 35.071C30.6376 35.3416 29.5933 35.6616 27.6719 35.7491C25.5944 35.8446 24.9704 35.8637 19.7076 35.8637C14.4464 35.8637 13.8224 35.8446 11.745 35.7491ZM11.5826 0.119392C9.4845 0.214905 8.05179 0.547611 6.79897 1.03473C5.50317 1.53777 4.40477 2.21273 3.30795 3.30795C2.21273 4.40317 1.53777 5.50158 1.03473 6.79897C0.547611 8.05179 0.214906 9.48449 0.119392 11.5826C0.0222865 13.6839 0 14.3557 0 19.7076C0 25.0596 0.0222865 25.7313 0.119392 27.8326C0.214906 29.9308 0.547611 31.3635 1.03473 32.6163C1.53777 33.9121 2.21114 35.0121 3.30795 36.1073C4.40317 37.2025 5.50158 37.8759 6.79897 38.3805C8.05338 38.8676 9.4845 39.2003 11.5826 39.2959C13.6855 39.3914 14.3557 39.4153 19.7076 39.4153C25.0612 39.4153 25.7314 39.393 27.8326 39.2959C29.9308 39.2003 31.3635 38.8676 32.6163 38.3805C33.9121 37.8759 35.0105 37.2025 36.1073 36.1073C37.2025 35.0121 37.8759 33.9121 38.3805 32.6163C38.8676 31.3635 39.2019 29.9308 39.2959 27.8326C39.3914 25.7298 39.4137 25.0596 39.4137 19.7076C39.4137 14.3557 39.3914 13.6839 39.2959 11.5826C39.2004 9.48449 38.8676 8.05179 38.3805 6.79897C37.8759 5.50317 37.2025 4.40477 36.1073 3.30795C35.0121 2.21273 33.9121 1.53777 32.6179 1.03473C31.3635 0.547611 29.9308 0.213314 27.8342 0.119392C25.7329 0.0238784 25.0612 0 19.7092 0C14.3557 0 13.6855 0.0222865 11.5826 0.119392Z" fill="#99A1AF"/>
</svg>
