<svg width="40" height="40" viewBox="0 0 40 40" fill="none" xmlns="http://www.w3.org/2000/svg">
<path d="M36.8234 0.000276858H3.28308C2.90606 -0.00495936 2.53169 0.0641253 2.18137 0.203585C1.83105 0.343046 1.51163 0.55015 1.24136 0.81307C0.971081 1.07599 0.755246 1.38958 0.606177 1.73592C0.457107 2.08226 0.377723 2.45458 0.372559 2.8316V36.7679C0.377723 37.145 0.457107 37.5173 0.606177 37.8636C0.755246 38.21 0.971081 38.5235 1.24136 38.7865C1.51163 39.0494 1.83105 39.2565 2.18137 39.3959C2.53169 39.5354 2.90606 39.6045 3.28308 39.5993H36.8234C37.2004 39.6045 37.5748 39.5354 37.9251 39.3959C38.2755 39.2565 38.5949 39.0494 38.8651 38.7865C39.1354 38.5235 39.3513 38.21 39.5003 37.8636C39.6494 37.5173 39.7288 37.145 39.7339 36.7679V2.8316C39.7288 2.45458 39.6494 2.08226 39.5003 1.73592C39.3513 1.38958 39.1354 1.07599 38.8651 0.81307C38.5949 0.55015 38.2755 0.343046 37.9251 0.203585C37.5748 0.0641253 37.2004 -0.00495936 36.8234 0.000276858ZM12.3117 33.1446H6.3718V15.3251H12.3117V33.1446ZM9.34173 12.8303C8.52255 12.8303 7.73692 12.5049 7.15767 11.9257C6.57842 11.3464 6.25301 10.5608 6.25301 9.74162C6.25301 8.92245 6.57842 8.13682 7.15767 7.55757C7.73692 6.97832 8.52255 6.6529 9.34173 6.6529C9.77671 6.60357 10.2172 6.64668 10.6344 6.77939C11.0516 6.91211 11.436 7.13144 11.7625 7.42303C12.0891 7.71462 12.3503 8.07189 12.5292 8.47145C12.7081 8.87101 12.8005 9.30385 12.8005 9.74162C12.8005 10.1794 12.7081 10.6122 12.5292 11.0118C12.3503 11.4114 12.0891 11.7686 11.7625 12.0602C11.436 12.3518 11.0516 12.5711 10.6344 12.7039C10.2172 12.8366 9.77671 12.8797 9.34173 12.8303ZM33.7347 33.1446H27.7949V23.5815C27.7949 21.1857 26.9435 19.6216 24.7853 19.6216C24.1174 19.6265 23.4671 19.836 22.9219 20.2218C22.3767 20.6077 21.9629 21.1514 21.7362 21.7797C21.5813 22.2451 21.5141 22.7352 21.5382 23.2251V33.1248H15.5984C15.5984 33.1248 15.5984 16.9288 15.5984 15.3053H21.5382V17.8198C22.0778 16.8835 22.8626 16.1121 23.8081 15.5888C24.7536 15.0655 25.8239 14.81 26.9039 14.8499C30.8638 14.8499 33.7347 17.404 33.7347 22.8885V33.1446Z" fill="#99A1AF"/>
</svg>
