<svg width="20" height="24" viewBox="0 0 20 24" fill="none" xmlns="http://www.w3.org/2000/svg">
<path d="M19.8559 4.33637C19.7059 3.77402 19.6059 3.4616 19.6059 3.4616C19.4433 2.8805 19.0308 2.8805 18.4182 2.78053L15.0992 2.36189C14.6866 2.29315 14.6866 2.29315 14.5241 1.937C13.9803 0.712314 13.8115 0 13.2177 0H6.77958C6.18577 0 6.02325 0.712314 5.47945 1.94324C5.31693 2.29315 5.31693 2.29315 4.90439 2.36813L1.57906 2.78677C0.972749 2.88675 0.535205 2.94298 0.372689 3.52408C0.372689 3.52408 0.297682 3.78027 0.141416 4.33637C-0.0586039 5.07993 -0.139862 4.9987 0.547707 4.9987H19.4496C20.1372 5.00495 20.0622 5.07993 19.8559 4.33637ZM17.7119 6.99818H2.28538C1.24778 6.99818 1.19777 7.13564 1.26028 7.91669L2.42914 23.0752C2.52915 23.8438 2.60416 24 3.523 24H16.4743C17.3931 24 17.4681 23.8438 17.5682 23.0752L18.737 7.91669C18.7995 7.12939 18.7495 6.99818 17.7119 6.99818Z" fill="white"/>
</svg>
