<svg width="25" height="22" viewBox="0 0 25 22" fill="none" xmlns="http://www.w3.org/2000/svg">
<path d="M12.9636 0.65625C7.69314 0.65625 3.51408 5.75896 1.78723 8.25134C1.22764 9.05895 0.927246 10.0174 0.927246 11C0.927246 11.9826 1.22764 12.9411 1.78723 13.7487C3.51408 16.241 7.69314 21.3437 12.9636 21.3437C18.2341 21.3437 22.4131 16.241 24.14 13.7487C24.6996 12.9411 25 11.9826 25 11C25 10.0174 24.6996 9.05895 24.14 8.25134C22.4131 5.75896 18.2341 0.65625 12.9636 0.65625ZM12.9636 17.5824C9.33408 17.5824 6.38122 14.6295 6.38122 11C6.38122 7.37047 9.33408 4.41761 12.9636 4.41761C16.5931 4.41761 19.546 7.37047 19.546 11C19.546 14.6295 16.5931 17.5824 12.9636 17.5824Z" fill="white"/>
<path d="M12.9638 14.7615C15.0411 14.7615 16.7251 13.0775 16.7251 11.0001C16.7251 8.92279 15.0411 7.23877 12.9638 7.23877C10.8864 7.23877 9.20239 8.92279 9.20239 11.0001C9.20239 13.0775 10.8864 14.7615 12.9638 14.7615Z" fill="white"/>
</svg>
