<svg width="40" height="40" viewBox="0 0 40 40" fill="none" xmlns="http://www.w3.org/2000/svg">
<path d="M28.9073 23.8089C28.5113 23.6109 25.9373 22.4229 25.5413 22.2249C25.1453 22.0269 24.7494 22.0269 24.3534 22.4229C23.9574 22.8189 23.1654 24.0069 22.7694 24.4029C22.5714 24.7989 22.1754 24.7989 21.7794 24.6009C20.3935 24.0069 19.0075 23.2149 17.8195 22.2249C16.8296 21.2349 15.8396 20.047 15.0476 18.859C14.8496 18.463 15.0476 18.067 15.2456 17.869C15.4436 17.671 15.6416 17.2751 16.0376 17.0771C16.2356 16.8791 16.4336 16.4831 16.4336 16.2851C16.6316 16.0871 16.6316 15.6911 16.4336 15.4931C16.2356 15.2951 15.2456 12.9192 14.8496 11.9292C14.6516 10.5432 14.2556 10.5432 13.8596 10.5432H12.8697C12.4737 10.5432 11.8797 10.9392 11.6817 11.1372C10.4937 12.3252 9.89974 13.7111 9.89974 15.2951C10.0977 17.0771 10.6917 18.859 11.8797 20.443C14.0576 23.6109 16.8296 26.1848 20.1955 27.7688C21.1854 28.1648 21.9774 28.5608 22.9674 28.7588C23.9574 29.1547 24.9474 29.1547 26.1353 28.9567C27.5213 28.7588 28.7093 27.7688 29.5012 26.5808C29.8972 25.7888 29.8972 24.9969 29.6992 24.2049L28.9073 23.8089ZM33.8571 5.79135C26.1353 -1.93045 13.6616 -1.93045 5.93985 5.79135C-0.39599 12.1272 -1.58396 21.8289 2.77193 29.5507L0 39.6485L10.4937 36.8765C13.4637 38.4605 16.6316 39.2525 19.7995 39.2525C30.6892 39.2525 39.401 30.5407 39.401 19.651C39.599 14.5031 37.421 9.55325 33.8571 5.79135ZM28.5113 33.5106C25.9373 35.0946 22.9674 36.0846 19.7995 36.0846C16.8296 36.0846 14.0576 35.2926 11.4837 33.9066L10.8897 33.5106L4.75188 35.0946L6.33584 29.1547L5.93985 28.5608C1.18797 20.641 3.56391 10.7412 11.2857 5.79135C19.0075 0.841479 28.9072 3.41541 33.6591 10.9392C38.411 18.661 36.2331 28.7588 28.5113 33.5106Z" fill="#99A1AF"/>
</svg>
