<svg width="40" height="41" viewBox="0 0 40 41" fill="none" xmlns="http://www.w3.org/2000/svg">
<path d="M29.5016 0H10.6376C5.02157 0 0.413574 4.56 0.413574 10.224V30C0.413574 35.616 4.97357 40.224 10.6376 40.224H29.5496C35.1656 40.224 39.7736 35.664 39.7736 30V10.176C39.7256 4.56 35.1656 0 29.5016 0ZM32.9096 33.408H25.5176C25.4696 33.408 25.4216 33.408 25.4216 33.36L18.5096 23.328H18.4616C15.6776 26.544 12.9416 29.712 10.2536 32.832C10.1096 33.024 9.91757 33.168 9.77357 33.312C9.72557 33.36 9.67757 33.36 9.62957 33.36H7.61357C7.56557 33.36 7.51757 33.36 7.56557 33.312L17.4056 21.888C17.4536 21.84 17.4536 21.792 17.4056 21.744L7.61357 7.488V7.44H15.0536C15.1016 7.44 15.1016 7.44 15.1496 7.488L21.6776 16.944C21.6776 16.944 21.6776 16.944 21.7256 16.944L29.8376 7.488C29.8856 7.44 29.9336 7.44 29.9816 7.44H31.9976C32.0936 7.44 32.0936 7.488 32.0456 7.536L22.7336 18.336C22.6856 18.384 22.6856 18.432 22.7336 18.48L32.9576 33.36C32.9576 33.36 32.9576 33.408 32.9096 33.408Z" fill="#99A1AF"/>
<path d="M14.1895 9.16797H10.9735C10.9255 9.16797 10.9255 9.21597 10.9255 9.26397L26.3815 31.68C26.3815 31.68 26.3815 31.68 26.4295 31.68H29.5975C29.6455 31.68 29.6455 31.632 29.6455 31.584L14.1895 9.16797Z" fill="#99A1AF"/>
</svg>
